<svg width="200" height="200" viewBox="0 0 200 200" fill="none" xmlns="http://www.w3.org/2000/svg">
<path d="M99.9979 0C44.8604 0 0 44.8572 0 100C0 155.143 44.8604 200 99.9979 200C155.14 200 200 155.143 200 100C200 44.8572 155.14 0 99.9979 0ZM137.867 105.418L83.1365 137.37C82.1529 137.938 81.0718 138.226 79.9907 138.226C78.9265 138.226 77.8623 137.946 76.8915 137.395C74.9285 136.267 73.7583 134.241 73.7583 131.977V68.0235C73.7583 65.7594 74.9327 63.7413 76.8957 62.6134C78.8545 61.4857 81.1948 61.4941 83.1451 62.6389L137.863 94.6494C139.796 95.7771 140.949 97.7868 140.954 100.025C140.953 102.273 139.8 104.282 137.867 105.418Z" fill="white" fill-opacity="0.23"/>
</svg>
